<svg xmlns="http://www.w3.org/2000/svg" width="1024" height="1024" viewBox="0 0 1024 1024">
<g fill="black">
  <path d="M 887,457 L 886,458 L 886,581 L 887,582 L 917,582 L 917,457 Z" />
  <path d="M 624,453 L 623,454 L 609,454 L 608,455 L 603,455 L 602,456 L 599,456 L 598,457 L 596,457 L 595,458 L 592,458 L 591,459 L 590,459 L 589,460 L 587,460 L 586,461 L 585,461 L 584,462 L 583,462 L 582,463 L 581,463 L 580,464 L 579,464 L 577,466 L 577,492 L 578,491 L 579,491 L 580,490 L 581,490 L 582,489 L 583,489 L 584,488 L 585,488 L 586,487 L 588,487 L 589,486 L 590,486 L 591,485 L 593,485 L 594,484 L 597,484 L 598,483 L 601,483 L 602,482 L 607,482 L 608,481 L 624,481 L 625,482 L 629,482 L 630,483 L 632,483 L 633,484 L 634,484 L 635,485 L 636,485 L 638,487 L 639,487 L 641,489 L 641,490 L 643,492 L 643,493 L 644,494 L 644,496 L 645,497 L 645,501 L 646,502 L 646,505 L 645,506 L 638,506 L 637,505 L 619,505 L 618,506 L 608,506 L 607,507 L 602,507 L 601,508 L 598,508 L 597,509 L 594,509 L 593,510 L 591,510 L 590,511 L 589,511 L 588,512 L 586,512 L 585,513 L 584,513 L 583,514 L 582,514 L 579,517 L 578,517 L 574,521 L 574,522 L 572,524 L 572,525 L 570,527 L 570,528 L 569,529 L 569,530 L 568,531 L 568,533 L 567,534 L 567,537 L 566,538 L 566,544 L 565,545 L 565,550 L 566,551 L 566,558 L 567,559 L 567,561 L 568,562 L 568,564 L 569,565 L 569,566 L 570,567 L 570,568 L 572,570 L 572,571 L 578,577 L 579,577 L 581,579 L 582,579 L 583,580 L 584,580 L 585,581 L 586,581 L 587,582 L 589,582 L 590,583 L 592,583 L 593,584 L 599,584 L 600,585 L 614,585 L 615,584 L 621,584 L 622,583 L 625,583 L 626,582 L 628,582 L 629,581 L 630,581 L 631,580 L 633,580 L 634,579 L 635,579 L 637,577 L 638,577 L 642,573 L 643,573 L 643,572 L 646,569 L 647,570 L 647,582 L 676,582 L 676,495 L 675,494 L 675,489 L 674,488 L 674,485 L 673,484 L 673,482 L 672,481 L 672,479 L 671,478 L 671,477 L 670,476 L 670,475 L 669,474 L 669,473 L 666,470 L 666,469 L 663,466 L 662,466 L 659,463 L 658,463 L 657,462 L 656,462 L 654,460 L 653,460 L 652,459 L 650,459 L 649,458 L 648,458 L 647,457 L 644,457 L 643,456 L 641,456 L 640,455 L 636,455 L 635,454 L 625,454 Z" />
  <path d="M 361,450 L 360,451 L 356,451 L 355,452 L 353,452 L 352,453 L 351,453 L 349,455 L 348,455 L 341,462 L 341,463 L 340,464 L 340,465 L 339,466 L 339,467 L 338,468 L 277,468 L 274,465 L 274,464 L 271,461 L 270,461 L 269,460 L 268,460 L 267,459 L 266,459 L 265,458 L 264,458 L 263,457 L 256,457 L 255,456 L 254,457 L 249,457 L 248,458 L 246,458 L 245,459 L 244,459 L 243,460 L 242,460 L 240,462 L 239,462 L 236,465 L 236,466 L 234,468 L 234,469 L 233,470 L 233,471 L 232,472 L 232,473 L 231,474 L 231,479 L 230,480 L 230,485 L 231,486 L 231,490 L 232,491 L 232,493 L 233,494 L 233,495 L 234,496 L 234,497 L 241,504 L 242,504 L 243,505 L 244,505 L 245,506 L 247,506 L 248,507 L 250,507 L 251,508 L 254,508 L 256,510 L 256,511 L 258,513 L 258,514 L 260,516 L 260,517 L 263,520 L 263,521 L 265,523 L 265,524 L 269,528 L 269,529 L 277,537 L 277,538 L 284,545 L 285,545 L 287,547 L 288,547 L 289,548 L 290,548 L 291,549 L 293,549 L 294,550 L 295,550 L 296,551 L 297,551 L 298,552 L 300,552 L 301,553 L 302,553 L 303,554 L 304,554 L 306,556 L 306,558 L 307,559 L 307,563 L 308,564 L 308,566 L 309,567 L 309,569 L 311,571 L 311,572 L 314,575 L 314,576 L 315,576 L 318,579 L 319,579 L 321,581 L 323,581 L 324,582 L 325,582 L 326,583 L 340,583 L 341,582 L 343,582 L 344,581 L 346,581 L 348,579 L 349,579 L 356,572 L 356,571 L 357,570 L 357,569 L 358,568 L 358,567 L 359,566 L 359,564 L 360,563 L 360,559 L 361,558 L 361,553 L 360,552 L 360,548 L 359,547 L 359,545 L 358,544 L 358,543 L 357,542 L 357,541 L 355,539 L 355,538 L 350,533 L 349,533 L 347,531 L 346,531 L 345,530 L 344,530 L 343,529 L 341,529 L 340,528 L 327,528 L 326,529 L 324,529 L 323,530 L 321,530 L 320,531 L 319,531 L 317,533 L 316,533 L 313,536 L 311,536 L 310,535 L 308,535 L 307,534 L 306,534 L 305,533 L 303,533 L 302,532 L 300,532 L 299,531 L 298,531 L 297,530 L 296,530 L 291,525 L 291,524 L 273,506 L 273,502 L 275,500 L 275,499 L 277,497 L 277,496 L 278,495 L 278,494 L 279,493 L 279,491 L 280,490 L 280,489 L 281,488 L 282,489 L 336,489 L 337,488 L 340,491 L 340,492 L 341,493 L 341,494 L 348,501 L 349,501 L 351,503 L 352,503 L 353,504 L 355,504 L 356,505 L 361,505 L 362,506 L 366,506 L 367,505 L 371,505 L 372,504 L 374,504 L 375,503 L 376,503 L 377,502 L 378,502 L 386,494 L 386,493 L 388,491 L 388,490 L 389,489 L 389,487 L 390,486 L 390,482 L 391,481 L 391,475 L 390,474 L 390,470 L 389,469 L 389,467 L 388,466 L 388,465 L 387,464 L 387,463 L 385,461 L 385,460 L 380,455 L 379,455 L 378,454 L 377,454 L 376,453 L 375,453 L 374,452 L 373,452 L 372,451 L 368,451 L 367,450 Z" />
  <path d="M 802,425 L 802,456 L 801,457 L 784,457 L 784,483 L 801,483 L 802,484 L 802,554 L 803,555 L 803,560 L 804,561 L 804,564 L 805,565 L 805,567 L 806,568 L 806,569 L 807,570 L 807,571 L 809,573 L 809,574 L 813,578 L 814,578 L 816,580 L 817,580 L 818,581 L 819,581 L 820,582 L 822,582 L 823,583 L 826,583 L 827,584 L 834,584 L 835,585 L 845,585 L 846,584 L 853,584 L 854,583 L 858,583 L 859,582 L 862,582 L 863,581 L 864,581 L 864,556 L 863,556 L 862,557 L 858,557 L 857,558 L 842,558 L 841,557 L 840,557 L 835,552 L 835,550 L 834,549 L 834,544 L 833,543 L 833,484 L 834,483 L 863,483 L 863,457 L 834,457 L 833,456 L 833,425 Z" />
  <path d="M 713,425 L 713,455 L 714,456 L 713,457 L 691,457 L 691,483 L 712,483 L 713,484 L 713,551 L 714,552 L 714,559 L 715,560 L 715,563 L 716,564 L 716,566 L 717,567 L 717,568 L 718,569 L 718,570 L 719,571 L 719,572 L 726,579 L 727,579 L 728,580 L 729,580 L 730,581 L 731,581 L 732,582 L 734,582 L 735,583 L 738,583 L 739,584 L 744,584 L 745,585 L 756,585 L 757,584 L 763,584 L 764,583 L 768,583 L 769,582 L 772,582 L 773,581 L 774,581 L 774,556 L 773,557 L 769,557 L 768,558 L 753,558 L 752,557 L 751,557 L 747,553 L 747,552 L 746,551 L 746,549 L 745,548 L 745,484 L 746,483 L 774,483 L 774,457 L 746,457 L 745,456 L 745,425 Z" />
  <path d="M 437,419 L 436,420 L 436,445 L 437,446 L 437,447 L 506,447 L 507,448 L 505,450 L 505,451 L 503,453 L 503,454 L 500,457 L 500,458 L 498,460 L 498,461 L 496,463 L 496,464 L 493,467 L 493,468 L 491,470 L 491,471 L 489,473 L 489,474 L 486,477 L 486,478 L 484,480 L 484,481 L 481,484 L 481,485 L 479,487 L 479,488 L 476,491 L 476,492 L 474,494 L 474,495 L 471,498 L 471,499 L 469,501 L 469,502 L 466,505 L 466,506 L 464,508 L 464,509 L 461,512 L 461,513 L 459,515 L 459,516 L 456,519 L 456,520 L 453,523 L 453,524 L 451,526 L 451,527 L 448,530 L 448,531 L 446,533 L 446,534 L 443,537 L 443,538 L 441,540 L 441,541 L 438,544 L 438,545 L 436,547 L 436,548 L 433,551 L 433,552 L 431,554 L 431,555 L 430,556 L 430,581 L 431,582 L 548,582 L 549,581 L 549,554 L 548,553 L 472,553 L 471,552 L 471,551 L 474,548 L 474,547 L 476,545 L 476,544 L 478,542 L 478,541 L 481,538 L 481,537 L 484,534 L 484,533 L 486,531 L 486,530 L 489,527 L 489,526 L 491,524 L 491,523 L 494,520 L 494,519 L 496,517 L 496,516 L 499,513 L 499,512 L 502,509 L 502,508 L 504,506 L 504,505 L 507,502 L 507,501 L 509,499 L 509,498 L 512,495 L 512,494 L 514,492 L 514,491 L 517,488 L 517,487 L 519,485 L 519,484 L 522,481 L 522,480 L 524,478 L 524,477 L 527,474 L 527,473 L 529,471 L 529,470 L 532,467 L 532,466 L 535,463 L 535,462 L 537,460 L 537,459 L 540,456 L 540,455 L 542,453 L 542,452 L 545,449 L 545,448 L 548,445 L 548,419 Z" />
  <path d="M 896,407 L 895,408 L 894,408 L 893,409 L 892,409 L 890,411 L 889,411 L 888,412 L 888,413 L 886,415 L 886,416 L 885,417 L 885,418 L 884,419 L 884,429 L 885,430 L 885,432 L 887,434 L 887,435 L 891,439 L 892,439 L 893,440 L 894,440 L 895,441 L 897,441 L 898,442 L 905,442 L 906,441 L 908,441 L 909,440 L 910,440 L 911,439 L 912,439 L 917,434 L 917,433 L 918,432 L 918,430 L 919,429 L 919,419 L 918,418 L 918,417 L 917,416 L 917,415 L 916,414 L 916,413 L 913,410 L 912,410 L 910,408 L 908,408 L 907,407 Z" />
  <path d="M 215,341 L 214,342 L 213,342 L 212,343 L 211,343 L 211,344 L 210,345 L 210,347 L 209,348 L 209,352 L 208,353 L 208,357 L 207,358 L 207,363 L 206,364 L 206,367 L 205,368 L 205,370 L 203,372 L 201,372 L 200,373 L 199,373 L 198,374 L 197,374 L 196,375 L 195,375 L 194,376 L 193,376 L 192,377 L 190,377 L 189,378 L 188,378 L 186,380 L 185,380 L 184,381 L 183,381 L 182,382 L 181,382 L 180,383 L 179,383 L 178,384 L 177,383 L 176,383 L 174,381 L 173,381 L 170,378 L 169,378 L 166,375 L 165,375 L 163,373 L 162,373 L 159,370 L 158,370 L 154,366 L 152,366 L 151,365 L 150,366 L 148,366 L 131,383 L 131,384 L 122,393 L 122,394 L 120,396 L 120,401 L 122,403 L 122,404 L 125,407 L 125,408 L 127,410 L 127,411 L 129,413 L 129,414 L 131,416 L 131,417 L 133,419 L 133,420 L 135,422 L 135,423 L 136,424 L 136,426 L 135,427 L 135,428 L 134,429 L 134,431 L 133,432 L 133,434 L 132,435 L 132,436 L 131,437 L 131,439 L 130,440 L 130,442 L 129,443 L 129,445 L 128,446 L 128,448 L 127,449 L 127,450 L 126,451 L 121,451 L 120,452 L 111,452 L 110,453 L 101,453 L 100,454 L 96,454 L 95,455 L 94,455 L 93,456 L 93,457 L 92,458 L 92,504 L 93,505 L 94,505 L 95,506 L 98,506 L 99,507 L 109,507 L 110,508 L 120,508 L 121,509 L 126,509 L 127,510 L 127,513 L 128,514 L 128,516 L 129,517 L 129,520 L 130,521 L 130,523 L 131,524 L 131,526 L 132,527 L 132,529 L 133,530 L 133,532 L 134,533 L 134,534 L 135,535 L 135,538 L 133,540 L 133,541 L 131,543 L 131,544 L 129,546 L 129,547 L 127,549 L 127,550 L 125,552 L 125,553 L 123,555 L 123,556 L 121,558 L 121,559 L 120,560 L 120,561 L 119,562 L 119,565 L 120,566 L 120,567 L 125,572 L 125,573 L 147,595 L 148,595 L 149,596 L 155,596 L 158,593 L 159,593 L 162,590 L 163,590 L 167,586 L 168,586 L 171,583 L 172,583 L 174,581 L 175,581 L 177,579 L 179,579 L 180,580 L 181,580 L 182,581 L 183,581 L 184,582 L 185,582 L 186,583 L 187,583 L 188,584 L 189,584 L 190,585 L 192,585 L 193,586 L 195,586 L 196,587 L 197,587 L 198,588 L 200,588 L 201,589 L 203,589 L 205,591 L 205,594 L 206,595 L 206,600 L 207,601 L 207,606 L 208,607 L 208,611 L 209,612 L 209,615 L 210,616 L 210,618 L 213,621 L 217,621 L 218,622 L 249,622 L 250,621 L 253,621 L 254,620 L 255,620 L 257,618 L 257,616 L 258,615 L 258,612 L 259,611 L 259,608 L 260,607 L 260,602 L 261,601 L 261,597 L 262,596 L 262,591 L 264,589 L 266,589 L 267,588 L 269,588 L 270,587 L 272,587 L 273,586 L 275,586 L 276,585 L 277,585 L 278,584 L 280,584 L 281,583 L 282,583 L 283,582 L 284,582 L 285,581 L 286,581 L 288,579 L 288,575 L 283,570 L 282,570 L 277,565 L 276,565 L 270,559 L 269,559 L 262,552 L 258,552 L 257,553 L 255,553 L 254,554 L 252,554 L 251,555 L 249,555 L 248,556 L 244,556 L 243,557 L 221,557 L 220,556 L 216,556 L 215,555 L 212,555 L 211,554 L 209,554 L 208,553 L 206,553 L 205,552 L 204,552 L 203,551 L 202,551 L 201,550 L 200,550 L 199,549 L 198,549 L 197,548 L 196,548 L 195,547 L 194,547 L 192,545 L 191,545 L 188,542 L 187,542 L 174,529 L 174,528 L 172,526 L 172,525 L 170,523 L 170,522 L 168,520 L 168,519 L 167,518 L 167,517 L 166,516 L 166,515 L 165,514 L 165,513 L 164,512 L 164,511 L 163,510 L 163,509 L 162,508 L 162,506 L 161,505 L 161,502 L 160,501 L 160,498 L 159,497 L 159,493 L 158,492 L 158,470 L 159,469 L 159,465 L 160,464 L 160,461 L 161,460 L 161,458 L 162,457 L 162,455 L 163,454 L 163,452 L 164,451 L 164,450 L 165,449 L 165,448 L 166,447 L 166,446 L 168,444 L 168,443 L 169,442 L 169,441 L 171,439 L 171,438 L 174,435 L 174,434 L 187,421 L 188,421 L 191,418 L 192,418 L 193,417 L 194,417 L 196,415 L 197,415 L 198,414 L 199,414 L 200,413 L 201,413 L 202,412 L 203,412 L 204,411 L 205,411 L 206,410 L 208,410 L 209,409 L 210,409 L 211,408 L 214,408 L 215,407 L 218,407 L 219,406 L 223,406 L 224,405 L 243,405 L 244,406 L 249,406 L 250,407 L 253,407 L 254,408 L 256,408 L 257,409 L 259,409 L 260,410 L 262,410 L 263,411 L 264,411 L 265,412 L 266,412 L 267,413 L 268,413 L 269,414 L 270,414 L 272,416 L 273,416 L 274,417 L 275,417 L 277,419 L 278,419 L 282,423 L 283,423 L 289,429 L 324,429 L 327,426 L 327,425 L 331,421 L 331,420 L 336,415 L 336,414 L 340,410 L 340,409 L 344,405 L 344,404 L 347,401 L 347,396 L 346,395 L 346,394 L 334,382 L 334,381 L 319,366 L 318,366 L 317,365 L 313,365 L 312,366 L 311,366 L 307,370 L 306,370 L 302,374 L 301,374 L 297,378 L 296,378 L 293,381 L 292,381 L 289,384 L 288,384 L 287,383 L 286,383 L 285,382 L 284,382 L 283,381 L 282,381 L 281,380 L 279,380 L 278,379 L 277,379 L 276,378 L 274,378 L 273,377 L 271,377 L 270,376 L 268,376 L 267,375 L 264,375 L 262,373 L 262,371 L 261,370 L 261,366 L 260,365 L 260,360 L 259,359 L 259,354 L 258,353 L 258,348 L 257,347 L 257,344 L 256,343 L 256,342 L 255,342 L 254,341 Z" />
</g>
</svg>